<mxfile host="Electron" agent="Mozilla/5.0 (Macintosh; Intel Mac OS X 10_15_7) AppleWebKit/537.36 (KHTML, like Gecko) draw.io/24.7.17 Chrome/128.0.6613.36 Electron/32.0.1 Safari/537.36" version="24.7.17">
  <diagram name="Arch" id="9D8wRMxHw1ceOXQ7DG32">
    <mxGraphModel dx="2074" dy="1214" grid="1" gridSize="10" guides="1" tooltips="1" connect="1" arrows="1" fold="1" page="1" pageScale="1" pageWidth="827" pageHeight="1169" math="0" shadow="0">
      <root>
        <mxCell id="0" />
        <mxCell id="1" parent="0" />
        <mxCell id="fQYS0PIHzSEprU5MxG2y-23" value="" style="rounded=0;whiteSpace=wrap;html=1;fillColor=none;" parent="1" vertex="1">
          <mxGeometry x="70" y="208" width="810" height="480" as="geometry" />
        </mxCell>
        <mxCell id="fQYS0PIHzSEprU5MxG2y-1" value="&lt;b&gt;app.hopps.org&lt;/b&gt;&lt;div&gt;Backend Service für Organisationen und Mitglieder&lt;/div&gt;" style="rounded=0;whiteSpace=wrap;html=1;" parent="1" vertex="1">
          <mxGeometry x="120" y="439" width="160" height="80" as="geometry" />
        </mxCell>
        <mxCell id="fQYS0PIHzSEprU5MxG2y-11" style="edgeStyle=orthogonalEdgeStyle;rounded=0;orthogonalLoop=1;jettySize=auto;html=1;" parent="1" source="fQYS0PIHzSEprU5MxG2y-2" target="fQYS0PIHzSEprU5MxG2y-10" edge="1">
          <mxGeometry relative="1" as="geometry">
            <Array as="points">
              <mxPoint x="200" y="170" />
              <mxPoint x="300" y="170" />
            </Array>
          </mxGeometry>
        </mxCell>
        <mxCell id="fQYS0PIHzSEprU5MxG2y-2" value="&lt;b&gt;app.hopps.mobile&lt;/b&gt;&lt;div&gt;React Native App mit Expo für iOS und Android&lt;/div&gt;" style="rounded=0;whiteSpace=wrap;html=1;" parent="1" vertex="1">
          <mxGeometry x="120" y="40" width="160" height="80" as="geometry" />
        </mxCell>
        <mxCell id="fQYS0PIHzSEprU5MxG2y-6" value="PG" style="shape=cylinder3;whiteSpace=wrap;html=1;boundedLbl=1;backgroundOutline=1;size=15;" parent="1" vertex="1">
          <mxGeometry x="170" y="559" width="60" height="80" as="geometry" />
        </mxCell>
        <mxCell id="fQYS0PIHzSEprU5MxG2y-7" style="edgeStyle=orthogonalEdgeStyle;rounded=0;orthogonalLoop=1;jettySize=auto;html=1;entryX=0.5;entryY=0;entryDx=0;entryDy=0;entryPerimeter=0;" parent="1" source="fQYS0PIHzSEprU5MxG2y-1" target="fQYS0PIHzSEprU5MxG2y-6" edge="1">
          <mxGeometry relative="1" as="geometry" />
        </mxCell>
        <mxCell id="fQYS0PIHzSEprU5MxG2y-8" value="&lt;b&gt;app.hopps.fin&lt;/b&gt;&lt;div&gt;Backend Service Buchhaltunsprozesse&lt;/div&gt;" style="rounded=0;whiteSpace=wrap;html=1;" parent="1" vertex="1">
          <mxGeometry x="320" y="439" width="160" height="80" as="geometry" />
        </mxCell>
        <mxCell id="UVlyDBMx_UOd0hudRLBB-6" style="edgeStyle=orthogonalEdgeStyle;rounded=0;orthogonalLoop=1;jettySize=auto;html=1;entryX=0.5;entryY=0;entryDx=0;entryDy=0;" parent="1" source="fQYS0PIHzSEprU5MxG2y-9" target="fQYS0PIHzSEprU5MxG2y-10" edge="1">
          <mxGeometry relative="1" as="geometry">
            <Array as="points">
              <mxPoint x="400" y="170" />
              <mxPoint x="300" y="170" />
            </Array>
          </mxGeometry>
        </mxCell>
        <mxCell id="fQYS0PIHzSEprU5MxG2y-9" value="&lt;b&gt;app.hopps.spa&lt;/b&gt;&lt;div&gt;React Web App&lt;/div&gt;" style="rounded=0;whiteSpace=wrap;html=1;" parent="1" vertex="1">
          <mxGeometry x="320" y="40" width="160" height="80" as="geometry" />
        </mxCell>
        <mxCell id="fQYS0PIHzSEprU5MxG2y-15" style="edgeStyle=orthogonalEdgeStyle;rounded=0;orthogonalLoop=1;jettySize=auto;html=1;entryX=0.5;entryY=0;entryDx=0;entryDy=0;" parent="1" source="fQYS0PIHzSEprU5MxG2y-10" target="fQYS0PIHzSEprU5MxG2y-1" edge="1">
          <mxGeometry relative="1" as="geometry" />
        </mxCell>
        <mxCell id="fQYS0PIHzSEprU5MxG2y-16" style="edgeStyle=orthogonalEdgeStyle;rounded=0;orthogonalLoop=1;jettySize=auto;html=1;" parent="1" source="fQYS0PIHzSEprU5MxG2y-10" target="fQYS0PIHzSEprU5MxG2y-8" edge="1">
          <mxGeometry relative="1" as="geometry" />
        </mxCell>
        <mxCell id="fQYS0PIHzSEprU5MxG2y-10" value="Api Gateway" style="rounded=0;whiteSpace=wrap;html=1;" parent="1" vertex="1">
          <mxGeometry x="220" y="260" width="160" height="40" as="geometry" />
        </mxCell>
        <mxCell id="fQYS0PIHzSEprU5MxG2y-17" value="PG" style="shape=cylinder3;whiteSpace=wrap;html=1;boundedLbl=1;backgroundOutline=1;size=15;" parent="1" vertex="1">
          <mxGeometry x="370" y="559" width="60" height="80" as="geometry" />
        </mxCell>
        <mxCell id="fQYS0PIHzSEprU5MxG2y-18" style="edgeStyle=orthogonalEdgeStyle;rounded=0;orthogonalLoop=1;jettySize=auto;html=1;entryX=0.5;entryY=0;entryDx=0;entryDy=0;entryPerimeter=0;" parent="1" source="fQYS0PIHzSEprU5MxG2y-8" target="fQYS0PIHzSEprU5MxG2y-17" edge="1">
          <mxGeometry relative="1" as="geometry" />
        </mxCell>
        <mxCell id="fQYS0PIHzSEprU5MxG2y-22" style="edgeStyle=orthogonalEdgeStyle;rounded=0;orthogonalLoop=1;jettySize=auto;html=1;entryX=0;entryY=0.5;entryDx=0;entryDy=0;" parent="1" source="fQYS0PIHzSEprU5MxG2y-19" target="fQYS0PIHzSEprU5MxG2y-21" edge="1">
          <mxGeometry relative="1" as="geometry" />
        </mxCell>
        <mxCell id="fQYS0PIHzSEprU5MxG2y-19" value="Apache Kafka" style="shape=cylinder3;whiteSpace=wrap;html=1;boundedLbl=1;backgroundOutline=1;size=6.448275862069124;labelPosition=center;verticalLabelPosition=bottom;align=center;verticalAlign=top;" parent="1" vertex="1">
          <mxGeometry x="560" y="359" width="40" height="240" as="geometry" />
        </mxCell>
        <mxCell id="fQYS0PIHzSEprU5MxG2y-20" style="edgeStyle=orthogonalEdgeStyle;rounded=0;orthogonalLoop=1;jettySize=auto;html=1;entryX=0;entryY=0.5;entryDx=0;entryDy=0;entryPerimeter=0;" parent="1" source="fQYS0PIHzSEprU5MxG2y-8" target="fQYS0PIHzSEprU5MxG2y-19" edge="1">
          <mxGeometry relative="1" as="geometry" />
        </mxCell>
        <mxCell id="fQYS0PIHzSEprU5MxG2y-21" value="&lt;b&gt;app.hopps.az-document-ai&lt;/b&gt;&lt;div&gt;Ambassador Service für Azure Document AI API&lt;/div&gt;" style="rounded=0;whiteSpace=wrap;html=1;" parent="1" vertex="1">
          <mxGeometry x="680" y="439" width="160" height="80" as="geometry" />
        </mxCell>
        <mxCell id="fQYS0PIHzSEprU5MxG2y-25" value="Azure" style="image;aspect=fixed;html=1;points=[];align=center;fontSize=12;image=img/lib/azure2/ai_machine_learning/Form_Recognizers.svg;" parent="1" vertex="1">
          <mxGeometry x="970" y="445" width="63.2" height="68" as="geometry" />
        </mxCell>
        <mxCell id="fQYS0PIHzSEprU5MxG2y-26" style="edgeStyle=orthogonalEdgeStyle;rounded=0;orthogonalLoop=1;jettySize=auto;html=1;entryX=0.016;entryY=0.509;entryDx=0;entryDy=0;entryPerimeter=0;" parent="1" source="fQYS0PIHzSEprU5MxG2y-21" target="fQYS0PIHzSEprU5MxG2y-25" edge="1">
          <mxGeometry relative="1" as="geometry" />
        </mxCell>
        <mxCell id="fQYS0PIHzSEprU5MxG2y-32" value="" style="shape=image;verticalLabelPosition=bottom;labelBackgroundColor=default;verticalAlign=top;aspect=fixed;imageAspect=0;image=data:image/svg+xml,PHN2ZyB4bWxuczp4bGluaz0iaHR0cDovL3d3dy53My5vcmcvMTk5OS94bGluayIgeG1sbnM9Imh0dHA6Ly93d3cudzMub3JnLzIwMDAvc3ZnIiB2aWV3Qm94PSIwIDAgMjE2IDIxNiIgdmVyc2lvbj0iMS4xIj4mI3hhOyAgPGRlZnM+JiN4YTsgICAgPHN0eWxlPiYjeGE7ICAgICAgLmNscy0xIHsmI3hhOyAgICAgICAgZmlsbDogbm9uZTsmI3hhOyAgICAgIH0mI3hhOyYjeGE7ICAgICAgLmNscy0yIHsmI3hhOyAgICAgICAgY2xpcC1wYXRoOiB1cmwoI2NsaXBwYXRoLTEpOyYjeGE7ICAgICAgfSYjeGE7JiN4YTsgICAgICAuY2xzLTMgeyYjeGE7ICAgICAgICBmaWxsOiAjMWI4MjE3OyYjeGE7ICAgICAgfSYjeGE7JiN4YTsgICAgICAuY2xzLTQgeyYjeGE7ICAgICAgICBmaWxsOiAjMjRjYTYwOyYjeGE7ICAgICAgfSYjeGE7JiN4YTsgICAgICAuY2xzLTUgeyYjeGE7ICAgICAgICBmaWxsOiAjOGNmZjI4OyYjeGE7ICAgICAgfSYjeGE7JiN4YTsgICAgICAuY2xzLTYgeyYjeGE7ICAgICAgICBmaWxsOiAjNWQ1NDM3OyYjeGE7ICAgICAgfSYjeGE7JiN4YTsgICAgICAuY2xzLTcgeyYjeGE7ICAgICAgICBmaWxsOiAjYmRmZjgyOyYjeGE7ICAgICAgfSYjeGE7JiN4YTsgICAgICAuY2xzLTggeyYjeGE7ICAgICAgICBjbGlwLXBhdGg6IHVybCgjY2xpcHBhdGgpOyYjeGE7ICAgICAgfSYjeGE7ICAgIDwvc3R5bGU+JiN4YTsgICAgPGNsaXBQYXRoIGlkPSJjbGlwcGF0aCI+JiN4YTsgICAgICA8cmVjdCBoZWlnaHQ9IjE3My4wNyIgd2lkdGg9IjE1NS43NiIgeT0iMjQiIHg9IjI4LjA4IiBjbGFzcz0iY2xzLTEiLz4mI3hhOyAgICA8L2NsaXBQYXRoPiYjeGE7ICAgIDxjbGlwUGF0aCBpZD0iY2xpcHBhdGgtMSI+JiN4YTsgICAgICA8cmVjdCBoZWlnaHQ9IjE3My4wNyIgd2lkdGg9IjE1NS43NiIgeT0iMjQiIHg9IjI4LjA4IiBjbGFzcz0iY2xzLTEiLz4mI3hhOyAgICA8L2NsaXBQYXRoPiYjeGE7ICA8L2RlZnM+JiN4YTsgICYjeGE7ICA8Zz4mI3hhOyAgICA8ZyBpZD0iTGF5ZXJfMSI+JiN4YTsgICAgICA8Zz4mI3hhOyAgICAgICAgPHBhdGggZD0iTTE1My41NSw1NC4yOGM0LjMzLDAsMzAuMjktNC4zMywzMC4yOSwzNC42MXMtNTYuMjUsMTA4LjE3LTEzNC4xMywxMDguMTdjLTguNjUsMC0xNy4zMS00LjMzLTE3LjMxLTQuMzNsLTQuMzMtMTIuOThzNC4zMy0xNy4zMSwzMC4yOS0zMC4yOWMyNS45Ni0xMi45OCw0NC40LTIzLjg3LDU1LjQzLTM0Ljg4LDguNjUtOC42NSwyMi40NS0yNS42OSwyMi40NS0zOC42NywwLTguNDcsOC42NS0xNy4zMSw4LjY1LTE3LjMxIiBjbGFzcz0iY2xzLTciLz4mI3hhOyAgICAgICAgPGcgY2xhc3M9ImNscy04Ij4mI3hhOyAgICAgICAgICA8cGF0aCBkPSJNMzYuNzMsMTg0LjA4czMwLjI5LTguNjUsNTYuMjUtMjEuNjNjMjUuOTYtMTIuOTgsODIuMjEtNTEuOTIsNjQuOS0xMDguMTcsMCwwLDI1Ljk2LTQuMzMsMjUuOTYsMzQuNjFzLTU2LjI1LDEwOC4xNy0xMzQuMTMsMTA4LjE3Yy04LjY1LDAtMTcuMzEtNC4zMy0xNy4zMS00LjMzbDQuMzMtOC42NVpNMzYuNzMsMTg0LjA4IiBjbGFzcz0iY2xzLTUiLz4mI3hhOyAgICAgICAgICA8cGF0aCBkPSJNMTc5Ljc4LDY2Ljk5Yy04LjExLTE3LjM5LTI2LjIzLTguMzgtMjYuMjMtNDMtMTIuOTgsMC0yMS42Myw4LjY1LTIxLjYzLDguNjUsMCwwLDEyLjk4LDEyLjk4LDEyLjk4LDI1Ljk2LDguNjUsMCwxNS42My0uNjcsMTYuMzksMjAuNTUsNS44Ny0yNC43OSwxOC40OS0xMi4xNywxOC40OS0xMi4xN2gwWk0xNzkuNzgsNjYuOTkiIGNsYXNzPSJjbHMtNCIvPiYjeGE7ICAgICAgICA8L2c+JiN4YTsgICAgICAgIDxwYXRoIGQ9Ik0xMzYuMjQsNzUuOTFzLS4yNy03Ljg0LDguNjUtMTcuMzFjOC45Mi05LjQ3LDE3LjQ0LTEuNzYsMTcuNDQtMS43NmwtMS4wNSwyMi4zMXMtMy43OS0xNC4wNi05LjczLTE0LjQyYy0xMi41NC0uNzYtMTUuMzEsMTEuMTctMTUuMzEsMTEuMTdoMFpNMTM2LjI0LDc1LjkxIiBjbGFzcz0iY2xzLTQiLz4mI3hhOyAgICAgICAgPGcgY2xhc3M9ImNscy0yIj4mI3hhOyAgICAgICAgICA8cGF0aCBkPSJNMjguMDgsMTg0LjA4bDQuMzMsOC42NWg0LjMzdi04LjY1bC04LjY1LTQuMzN2NC4zM1pNMjguMDgsMTg0LjA4IiBjbGFzcz0iY2xzLTYiLz4mI3hhOyAgICAgICAgICA8cGF0aCBkPSJNMTUzLjU1LDI0Yy0xMi45OCwwLTIxLjYzLDguNjUtMjEuNjMsOC42NWgxMi45OGw4LjY1LTguNjVaTTE1My41NSwyNCIgY2xhc3M9ImNscy0zIi8+JiN4YTsgICAgICAgIDwvZz4mI3hhOyAgICAgIDwvZz4mI3hhOyAgICA8L2c+JiN4YTsgIDwvZz4mI3hhOzwvc3ZnPg==;" parent="1" vertex="1">
          <mxGeometry x="260" y="100" width="36" height="36" as="geometry" />
        </mxCell>
        <mxCell id="fQYS0PIHzSEprU5MxG2y-34" value="" style="shape=image;verticalLabelPosition=bottom;labelBackgroundColor=default;verticalAlign=top;aspect=fixed;imageAspect=0;image=data:image/svg+xml,PHN2ZyB4bWxuczp4bGluaz0iaHR0cDovL3d3dy53My5vcmcvMTk5OS94bGluayIgeG1sbnM9Imh0dHA6Ly93d3cudzMub3JnLzIwMDAvc3ZnIiB2aWV3Qm94PSIwIDAgMjE2IDIxNiIgdmVyc2lvbj0iMS4xIj4mI3hhOyAgPGRlZnM+JiN4YTsgICAgPHN0eWxlPiYjeGE7ICAgICAgLmNscy0xIHsmI3hhOyAgICAgICAgZmlsbDogbm9uZTsmI3hhOyAgICAgIH0mI3hhOyYjeGE7ICAgICAgLmNscy0yIHsmI3hhOyAgICAgICAgY2xpcC1wYXRoOiB1cmwoI2NsaXBwYXRoLTEpOyYjeGE7ICAgICAgfSYjeGE7JiN4YTsgICAgICAuY2xzLTMgeyYjeGE7ICAgICAgICBmaWxsOiAjMWI4MjE3OyYjeGE7ICAgICAgfSYjeGE7JiN4YTsgICAgICAuY2xzLTQgeyYjeGE7ICAgICAgICBmaWxsOiAjMjRjYTYwOyYjeGE7ICAgICAgfSYjeGE7JiN4YTsgICAgICAuY2xzLTUgeyYjeGE7ICAgICAgICBmaWxsOiAjOGNmZjI4OyYjeGE7ICAgICAgfSYjeGE7JiN4YTsgICAgICAuY2xzLTYgeyYjeGE7ICAgICAgICBmaWxsOiAjNWQ1NDM3OyYjeGE7ICAgICAgfSYjeGE7JiN4YTsgICAgICAuY2xzLTcgeyYjeGE7ICAgICAgICBmaWxsOiAjYmRmZjgyOyYjeGE7ICAgICAgfSYjeGE7JiN4YTsgICAgICAuY2xzLTggeyYjeGE7ICAgICAgICBjbGlwLXBhdGg6IHVybCgjY2xpcHBhdGgpOyYjeGE7ICAgICAgfSYjeGE7ICAgIDwvc3R5bGU+JiN4YTsgICAgPGNsaXBQYXRoIGlkPSJjbGlwcGF0aCI+JiN4YTsgICAgICA8cmVjdCBoZWlnaHQ9IjE3My4wNyIgd2lkdGg9IjE1NS43NiIgeT0iMjQiIHg9IjI4LjA4IiBjbGFzcz0iY2xzLTEiLz4mI3hhOyAgICA8L2NsaXBQYXRoPiYjeGE7ICAgIDxjbGlwUGF0aCBpZD0iY2xpcHBhdGgtMSI+JiN4YTsgICAgICA8cmVjdCBoZWlnaHQ9IjE3My4wNyIgd2lkdGg9IjE1NS43NiIgeT0iMjQiIHg9IjI4LjA4IiBjbGFzcz0iY2xzLTEiLz4mI3hhOyAgICA8L2NsaXBQYXRoPiYjeGE7ICA8L2RlZnM+JiN4YTsgICYjeGE7ICA8Zz4mI3hhOyAgICA8ZyBpZD0iTGF5ZXJfMSI+JiN4YTsgICAgICA8Zz4mI3hhOyAgICAgICAgPHBhdGggZD0iTTE1My41NSw1NC4yOGM0LjMzLDAsMzAuMjktNC4zMywzMC4yOSwzNC42MXMtNTYuMjUsMTA4LjE3LTEzNC4xMywxMDguMTdjLTguNjUsMC0xNy4zMS00LjMzLTE3LjMxLTQuMzNsLTQuMzMtMTIuOThzNC4zMy0xNy4zMSwzMC4yOS0zMC4yOWMyNS45Ni0xMi45OCw0NC40LTIzLjg3LDU1LjQzLTM0Ljg4LDguNjUtOC42NSwyMi40NS0yNS42OSwyMi40NS0zOC42NywwLTguNDcsOC42NS0xNy4zMSw4LjY1LTE3LjMxIiBjbGFzcz0iY2xzLTciLz4mI3hhOyAgICAgICAgPGcgY2xhc3M9ImNscy04Ij4mI3hhOyAgICAgICAgICA8cGF0aCBkPSJNMzYuNzMsMTg0LjA4czMwLjI5LTguNjUsNTYuMjUtMjEuNjNjMjUuOTYtMTIuOTgsODIuMjEtNTEuOTIsNjQuOS0xMDguMTcsMCwwLDI1Ljk2LTQuMzMsMjUuOTYsMzQuNjFzLTU2LjI1LDEwOC4xNy0xMzQuMTMsMTA4LjE3Yy04LjY1LDAtMTcuMzEtNC4zMy0xNy4zMS00LjMzbDQuMzMtOC42NVpNMzYuNzMsMTg0LjA4IiBjbGFzcz0iY2xzLTUiLz4mI3hhOyAgICAgICAgICA8cGF0aCBkPSJNMTc5Ljc4LDY2Ljk5Yy04LjExLTE3LjM5LTI2LjIzLTguMzgtMjYuMjMtNDMtMTIuOTgsMC0yMS42Myw4LjY1LTIxLjYzLDguNjUsMCwwLDEyLjk4LDEyLjk4LDEyLjk4LDI1Ljk2LDguNjUsMCwxNS42My0uNjcsMTYuMzksMjAuNTUsNS44Ny0yNC43OSwxOC40OS0xMi4xNywxOC40OS0xMi4xN2gwWk0xNzkuNzgsNjYuOTkiIGNsYXNzPSJjbHMtNCIvPiYjeGE7ICAgICAgICA8L2c+JiN4YTsgICAgICAgIDxwYXRoIGQ9Ik0xMzYuMjQsNzUuOTFzLS4yNy03Ljg0LDguNjUtMTcuMzFjOC45Mi05LjQ3LDE3LjQ0LTEuNzYsMTcuNDQtMS43NmwtMS4wNSwyMi4zMXMtMy43OS0xNC4wNi05LjczLTE0LjQyYy0xMi41NC0uNzYtMTUuMzEsMTEuMTctMTUuMzEsMTEuMTdoMFpNMTM2LjI0LDc1LjkxIiBjbGFzcz0iY2xzLTQiLz4mI3hhOyAgICAgICAgPGcgY2xhc3M9ImNscy0yIj4mI3hhOyAgICAgICAgICA8cGF0aCBkPSJNMjguMDgsMTg0LjA4bDQuMzMsOC42NWg0LjMzdi04LjY1bC04LjY1LTQuMzN2NC4zM1pNMjguMDgsMTg0LjA4IiBjbGFzcz0iY2xzLTYiLz4mI3hhOyAgICAgICAgICA8cGF0aCBkPSJNMTUzLjU1LDI0Yy0xMi45OCwwLTIxLjYzLDguNjUtMjEuNjMsOC42NWgxMi45OGw4LjY1LTguNjVaTTE1My41NSwyNCIgY2xhc3M9ImNscy0zIi8+JiN4YTsgICAgICAgIDwvZz4mI3hhOyAgICAgIDwvZz4mI3hhOyAgICA8L2c+JiN4YTsgIDwvZz4mI3hhOzwvc3ZnPg==;" parent="1" vertex="1">
          <mxGeometry x="820" y="493" width="36" height="36" as="geometry" />
        </mxCell>
        <mxCell id="fQYS0PIHzSEprU5MxG2y-35" value="" style="shape=image;verticalLabelPosition=bottom;labelBackgroundColor=default;verticalAlign=top;aspect=fixed;imageAspect=0;image=data:image/svg+xml,PHN2ZyB4bWxuczp4bGluaz0iaHR0cDovL3d3dy53My5vcmcvMTk5OS94bGluayIgeG1sbnM9Imh0dHA6Ly93d3cudzMub3JnLzIwMDAvc3ZnIiB2aWV3Qm94PSIwIDAgMjE2IDIxNiIgdmVyc2lvbj0iMS4xIj4mI3hhOyAgPGRlZnM+JiN4YTsgICAgPHN0eWxlPiYjeGE7ICAgICAgLmNscy0xIHsmI3hhOyAgICAgICAgZmlsbDogbm9uZTsmI3hhOyAgICAgIH0mI3hhOyYjeGE7ICAgICAgLmNscy0yIHsmI3hhOyAgICAgICAgY2xpcC1wYXRoOiB1cmwoI2NsaXBwYXRoLTEpOyYjeGE7ICAgICAgfSYjeGE7JiN4YTsgICAgICAuY2xzLTMgeyYjeGE7ICAgICAgICBmaWxsOiAjMWI4MjE3OyYjeGE7ICAgICAgfSYjeGE7JiN4YTsgICAgICAuY2xzLTQgeyYjeGE7ICAgICAgICBmaWxsOiAjMjRjYTYwOyYjeGE7ICAgICAgfSYjeGE7JiN4YTsgICAgICAuY2xzLTUgeyYjeGE7ICAgICAgICBmaWxsOiAjOGNmZjI4OyYjeGE7ICAgICAgfSYjeGE7JiN4YTsgICAgICAuY2xzLTYgeyYjeGE7ICAgICAgICBmaWxsOiAjNWQ1NDM3OyYjeGE7ICAgICAgfSYjeGE7JiN4YTsgICAgICAuY2xzLTcgeyYjeGE7ICAgICAgICBmaWxsOiAjYmRmZjgyOyYjeGE7ICAgICAgfSYjeGE7JiN4YTsgICAgICAuY2xzLTggeyYjeGE7ICAgICAgICBjbGlwLXBhdGg6IHVybCgjY2xpcHBhdGgpOyYjeGE7ICAgICAgfSYjeGE7ICAgIDwvc3R5bGU+JiN4YTsgICAgPGNsaXBQYXRoIGlkPSJjbGlwcGF0aCI+JiN4YTsgICAgICA8cmVjdCBoZWlnaHQ9IjE3My4wNyIgd2lkdGg9IjE1NS43NiIgeT0iMjQiIHg9IjI4LjA4IiBjbGFzcz0iY2xzLTEiLz4mI3hhOyAgICA8L2NsaXBQYXRoPiYjeGE7ICAgIDxjbGlwUGF0aCBpZD0iY2xpcHBhdGgtMSI+JiN4YTsgICAgICA8cmVjdCBoZWlnaHQ9IjE3My4wNyIgd2lkdGg9IjE1NS43NiIgeT0iMjQiIHg9IjI4LjA4IiBjbGFzcz0iY2xzLTEiLz4mI3hhOyAgICA8L2NsaXBQYXRoPiYjeGE7ICA8L2RlZnM+JiN4YTsgICYjeGE7ICA8Zz4mI3hhOyAgICA8ZyBpZD0iTGF5ZXJfMSI+JiN4YTsgICAgICA8Zz4mI3hhOyAgICAgICAgPHBhdGggZD0iTTE1My41NSw1NC4yOGM0LjMzLDAsMzAuMjktNC4zMywzMC4yOSwzNC42MXMtNTYuMjUsMTA4LjE3LTEzNC4xMywxMDguMTdjLTguNjUsMC0xNy4zMS00LjMzLTE3LjMxLTQuMzNsLTQuMzMtMTIuOThzNC4zMy0xNy4zMSwzMC4yOS0zMC4yOWMyNS45Ni0xMi45OCw0NC40LTIzLjg3LDU1LjQzLTM0Ljg4LDguNjUtOC42NSwyMi40NS0yNS42OSwyMi40NS0zOC42NywwLTguNDcsOC42NS0xNy4zMSw4LjY1LTE3LjMxIiBjbGFzcz0iY2xzLTciLz4mI3hhOyAgICAgICAgPGcgY2xhc3M9ImNscy04Ij4mI3hhOyAgICAgICAgICA8cGF0aCBkPSJNMzYuNzMsMTg0LjA4czMwLjI5LTguNjUsNTYuMjUtMjEuNjNjMjUuOTYtMTIuOTgsODIuMjEtNTEuOTIsNjQuOS0xMDguMTcsMCwwLDI1Ljk2LTQuMzMsMjUuOTYsMzQuNjFzLTU2LjI1LDEwOC4xNy0xMzQuMTMsMTA4LjE3Yy04LjY1LDAtMTcuMzEtNC4zMy0xNy4zMS00LjMzbDQuMzMtOC42NVpNMzYuNzMsMTg0LjA4IiBjbGFzcz0iY2xzLTUiLz4mI3hhOyAgICAgICAgICA8cGF0aCBkPSJNMTc5Ljc4LDY2Ljk5Yy04LjExLTE3LjM5LTI2LjIzLTguMzgtMjYuMjMtNDMtMTIuOTgsMC0yMS42Myw4LjY1LTIxLjYzLDguNjUsMCwwLDEyLjk4LDEyLjk4LDEyLjk4LDI1Ljk2LDguNjUsMCwxNS42My0uNjcsMTYuMzksMjAuNTUsNS44Ny0yNC43OSwxOC40OS0xMi4xNywxOC40OS0xMi4xN2gwWk0xNzkuNzgsNjYuOTkiIGNsYXNzPSJjbHMtNCIvPiYjeGE7ICAgICAgICA8L2c+JiN4YTsgICAgICAgIDxwYXRoIGQ9Ik0xMzYuMjQsNzUuOTFzLS4yNy03Ljg0LDguNjUtMTcuMzFjOC45Mi05LjQ3LDE3LjQ0LTEuNzYsMTcuNDQtMS43NmwtMS4wNSwyMi4zMXMtMy43OS0xNC4wNi05LjczLTE0LjQyYy0xMi41NC0uNzYtMTUuMzEsMTEuMTctMTUuMzEsMTEuMTdoMFpNMTM2LjI0LDc1LjkxIiBjbGFzcz0iY2xzLTQiLz4mI3hhOyAgICAgICAgPGcgY2xhc3M9ImNscy0yIj4mI3hhOyAgICAgICAgICA8cGF0aCBkPSJNMjguMDgsMTg0LjA4bDQuMzMsOC42NWg0LjMzdi04LjY1bC04LjY1LTQuMzN2NC4zM1pNMjguMDgsMTg0LjA4IiBjbGFzcz0iY2xzLTYiLz4mI3hhOyAgICAgICAgICA8cGF0aCBkPSJNMTUzLjU1LDI0Yy0xMi45OCwwLTIxLjYzLDguNjUtMjEuNjMsOC42NWgxMi45OGw4LjY1LTguNjVaTTE1My41NSwyNCIgY2xhc3M9ImNscy0zIi8+JiN4YTsgICAgICAgIDwvZz4mI3hhOyAgICAgIDwvZz4mI3hhOyAgICA8L2c+JiN4YTsgIDwvZz4mI3hhOzwvc3ZnPg==;" parent="1" vertex="1">
          <mxGeometry x="580" y="563" width="36" height="36" as="geometry" />
        </mxCell>
        <mxCell id="fQYS0PIHzSEprU5MxG2y-36" value="" style="shape=image;verticalLabelPosition=bottom;labelBackgroundColor=default;verticalAlign=top;aspect=fixed;imageAspect=0;image=data:image/svg+xml,PHN2ZyB4bWxucz0iaHR0cDovL3d3dy53My5vcmcvMjAwMC9zdmciIHZpZXdCb3g9IjAgMCA0OCA0OCI+PGxpbmVhckdyYWRpZW50IGdyYWRpZW50VW5pdHM9InVzZXJTcGFjZU9uVXNlIiB5Mj0iMjcuNTU3IiB5MT0iNy41MzQiIHgyPSIyNy41NTciIHgxPSI3LjUzNCIgaWQ9ImhiRTlFdm5qM3dBampBMlJYMFdlMmEiPjxzdG9wIHN0b3AtY29sb3I9IiNmNDRmNWEiIG9mZnNldD0iMCIvPjxzdG9wIHN0b3AtY29sb3I9IiNlZTNkNGEiIG9mZnNldD0iLjQ0MyIvPjxzdG9wIHN0b3AtY29sb3I9IiNlNTIwMzAiIG9mZnNldD0iMSIvPjwvbGluZWFyR3JhZGllbnQ+PHBhdGggZD0iTTQyLjQyLDEyLjQwMWMwLjc3NC0wLjc3NCwwLjc3NC0yLjAyOCwwLTIuODAyTDM4LjQwMSw1LjU4Yy0wLjc3NC0wLjc3NC0yLjAyOC0wLjc3NC0yLjgwMiwwJiM5O0wyNCwxNy4xNzlMMTIuNDAxLDUuNThjLTAuNzc0LTAuNzc0LTIuMDI4LTAuNzc0LTIuODAyLDBMNS41OCw5LjU5OWMtMC43NzQsMC43NzQtMC43NzQsMi4wMjgsMCwyLjgwMkwxNy4xNzksMjRMNS41OCwzNS41OTkmIzk7Yy0wLjc3NCwwLjc3NC0wLjc3NCwyLjAyOCwwLDIuODAybDQuMDE5LDQuMDE5YzAuNzc0LDAuNzc0LDIuMDI4LDAuNzc0LDIuODAyLDBMNDIuNDIsMTIuNDAxeiIgZmlsbD0idXJsKCNoYkU5RXZuajN3QWpqQTJSWDBXZTJhKSIvPjxsaW5lYXJHcmFkaWVudCBncmFkaWVudFVuaXRzPSJ1c2VyU3BhY2VPblVzZSIgeTI9IjQwLjUwNyIgeTE9IjI3LjM3MyIgeDI9IjQwLjUwNyIgeDE9IjI3LjM3MyIgaWQ9ImhiRTlFdm5qM3dBampBMlJYMFdlMmIiPjxzdG9wIHN0b3AtY29sb3I9IiNhODE0MmUiIG9mZnNldD0iMCIvPjxzdG9wIHN0b3AtY29sb3I9IiNiYTE2MzIiIG9mZnNldD0iLjE3OSIvPjxzdG9wIHN0b3AtY29sb3I9IiNjMjE3MzQiIG9mZnNldD0iLjI0MyIvPjwvbGluZWFyR3JhZGllbnQ+PHBhdGggZD0iTTI0LDMwLjgyMUwzNS41OTksNDIuNDJjMC43NzQsMC43NzQsMi4wMjgsMC43NzQsMi44MDIsMGw0LjAxOS00LjAxOSYjOTtjMC43NzQtMC43NzQsMC43NzQtMi4wMjgsMC0yLjgwMkwzMC44MjEsMjRMMjQsMzAuODIxeiIgZmlsbD0idXJsKCNoYkU5RXZuajN3QWpqQTJSWDBXZTJiKSIvPjwvc3ZnPg==;" parent="1" vertex="1">
          <mxGeometry x="464" y="107" width="22" height="22" as="geometry" />
        </mxCell>
        <mxCell id="fQYS0PIHzSEprU5MxG2y-37" value="" style="shape=image;verticalLabelPosition=bottom;labelBackgroundColor=default;verticalAlign=top;aspect=fixed;imageAspect=0;image=data:image/svg+xml,PHN2ZyB4bWxucz0iaHR0cDovL3d3dy53My5vcmcvMjAwMC9zdmciIHZpZXdCb3g9IjAgMCA0OCA0OCI+PGxpbmVhckdyYWRpZW50IGdyYWRpZW50VW5pdHM9InVzZXJTcGFjZU9uVXNlIiB5Mj0iMjcuNTU3IiB5MT0iNy41MzQiIHgyPSIyNy41NTciIHgxPSI3LjUzNCIgaWQ9ImhiRTlFdm5qM3dBampBMlJYMFdlMmEiPjxzdG9wIHN0b3AtY29sb3I9IiNmNDRmNWEiIG9mZnNldD0iMCIvPjxzdG9wIHN0b3AtY29sb3I9IiNlZTNkNGEiIG9mZnNldD0iLjQ0MyIvPjxzdG9wIHN0b3AtY29sb3I9IiNlNTIwMzAiIG9mZnNldD0iMSIvPjwvbGluZWFyR3JhZGllbnQ+PHBhdGggZD0iTTQyLjQyLDEyLjQwMWMwLjc3NC0wLjc3NCwwLjc3NC0yLjAyOCwwLTIuODAyTDM4LjQwMSw1LjU4Yy0wLjc3NC0wLjc3NC0yLjAyOC0wLjc3NC0yLjgwMiwwJiM5O0wyNCwxNy4xNzlMMTIuNDAxLDUuNThjLTAuNzc0LTAuNzc0LTIuMDI4LTAuNzc0LTIuODAyLDBMNS41OCw5LjU5OWMtMC43NzQsMC43NzQtMC43NzQsMi4wMjgsMCwyLjgwMkwxNy4xNzksMjRMNS41OCwzNS41OTkmIzk7Yy0wLjc3NCwwLjc3NC0wLjc3NCwyLjAyOCwwLDIuODAybDQuMDE5LDQuMDE5YzAuNzc0LDAuNzc0LDIuMDI4LDAuNzc0LDIuODAyLDBMNDIuNDIsMTIuNDAxeiIgZmlsbD0idXJsKCNoYkU5RXZuajN3QWpqQTJSWDBXZTJhKSIvPjxsaW5lYXJHcmFkaWVudCBncmFkaWVudFVuaXRzPSJ1c2VyU3BhY2VPblVzZSIgeTI9IjQwLjUwNyIgeTE9IjI3LjM3MyIgeDI9IjQwLjUwNyIgeDE9IjI3LjM3MyIgaWQ9ImhiRTlFdm5qM3dBampBMlJYMFdlMmIiPjxzdG9wIHN0b3AtY29sb3I9IiNhODE0MmUiIG9mZnNldD0iMCIvPjxzdG9wIHN0b3AtY29sb3I9IiNiYTE2MzIiIG9mZnNldD0iLjE3OSIvPjxzdG9wIHN0b3AtY29sb3I9IiNjMjE3MzQiIG9mZnNldD0iLjI0MyIvPjwvbGluZWFyR3JhZGllbnQ+PHBhdGggZD0iTTI0LDMwLjgyMUwzNS41OTksNDIuNDJjMC43NzQsMC43NzQsMi4wMjgsMC43NzQsMi44MDIsMGw0LjAxOS00LjAxOSYjOTtjMC43NzQtMC43NzQsMC43NzQtMi4wMjgsMC0yLjgwMkwzMC44MjEsMjRMMjQsMzAuODIxeiIgZmlsbD0idXJsKCNoYkU5RXZuajN3QWpqQTJSWDBXZTJiKSIvPjwvc3ZnPg==;" parent="1" vertex="1">
          <mxGeometry x="370" y="290" width="22" height="22" as="geometry" />
        </mxCell>
        <mxCell id="fQYS0PIHzSEprU5MxG2y-38" value="" style="shape=image;verticalLabelPosition=bottom;labelBackgroundColor=default;verticalAlign=top;aspect=fixed;imageAspect=0;image=data:image/svg+xml,PHN2ZyB4bWxucz0iaHR0cDovL3d3dy53My5vcmcvMjAwMC9zdmciIHZpZXdCb3g9IjAgMCA0OCA0OCI+PGxpbmVhckdyYWRpZW50IGdyYWRpZW50VW5pdHM9InVzZXJTcGFjZU9uVXNlIiB5Mj0iMjcuNTU3IiB5MT0iNy41MzQiIHgyPSIyNy41NTciIHgxPSI3LjUzNCIgaWQ9ImhiRTlFdm5qM3dBampBMlJYMFdlMmEiPjxzdG9wIHN0b3AtY29sb3I9IiNmNDRmNWEiIG9mZnNldD0iMCIvPjxzdG9wIHN0b3AtY29sb3I9IiNlZTNkNGEiIG9mZnNldD0iLjQ0MyIvPjxzdG9wIHN0b3AtY29sb3I9IiNlNTIwMzAiIG9mZnNldD0iMSIvPjwvbGluZWFyR3JhZGllbnQ+PHBhdGggZD0iTTQyLjQyLDEyLjQwMWMwLjc3NC0wLjc3NCwwLjc3NC0yLjAyOCwwLTIuODAyTDM4LjQwMSw1LjU4Yy0wLjc3NC0wLjc3NC0yLjAyOC0wLjc3NC0yLjgwMiwwJiM5O0wyNCwxNy4xNzlMMTIuNDAxLDUuNThjLTAuNzc0LTAuNzc0LTIuMDI4LTAuNzc0LTIuODAyLDBMNS41OCw5LjU5OWMtMC43NzQsMC43NzQtMC43NzQsMi4wMjgsMCwyLjgwMkwxNy4xNzksMjRMNS41OCwzNS41OTkmIzk7Yy0wLjc3NCwwLjc3NC0wLjc3NCwyLjAyOCwwLDIuODAybDQuMDE5LDQuMDE5YzAuNzc0LDAuNzc0LDIuMDI4LDAuNzc0LDIuODAyLDBMNDIuNDIsMTIuNDAxeiIgZmlsbD0idXJsKCNoYkU5RXZuajN3QWpqQTJSWDBXZTJhKSIvPjxsaW5lYXJHcmFkaWVudCBncmFkaWVudFVuaXRzPSJ1c2VyU3BhY2VPblVzZSIgeTI9IjQwLjUwNyIgeTE9IjI3LjM3MyIgeDI9IjQwLjUwNyIgeDE9IjI3LjM3MyIgaWQ9ImhiRTlFdm5qM3dBampBMlJYMFdlMmIiPjxzdG9wIHN0b3AtY29sb3I9IiNhODE0MmUiIG9mZnNldD0iMCIvPjxzdG9wIHN0b3AtY29sb3I9IiNiYTE2MzIiIG9mZnNldD0iLjE3OSIvPjxzdG9wIHN0b3AtY29sb3I9IiNjMjE3MzQiIG9mZnNldD0iLjI0MyIvPjwvbGluZWFyR3JhZGllbnQ+PHBhdGggZD0iTTI0LDMwLjgyMUwzNS41OTksNDIuNDJjMC43NzQsMC43NzQsMi4wMjgsMC43NzQsMi44MDIsMGw0LjAxOS00LjAxOSYjOTtjMC43NzQtMC43NzQsMC43NzQtMi4wMjgsMC0yLjgwMkwzMC44MjEsMjRMMjQsMzAuODIxeiIgZmlsbD0idXJsKCNoYkU5RXZuajN3QWpqQTJSWDBXZTJiKSIvPjwvc3ZnPg==;" parent="1" vertex="1">
          <mxGeometry x="464" y="507" width="22" height="22" as="geometry" />
        </mxCell>
        <mxCell id="UVlyDBMx_UOd0hudRLBB-1" value="&lt;div&gt;&lt;b&gt;Keycloak&lt;/b&gt;&lt;/div&gt;&lt;div&gt;OAuth2/OIDC &lt;br&gt;Identity Service&lt;/div&gt;" style="rounded=0;whiteSpace=wrap;html=1;" parent="1" vertex="1">
          <mxGeometry x="500" y="240" width="160" height="80" as="geometry" />
        </mxCell>
        <mxCell id="N68k7SORgZGEfMQqbvbX-2" value="" style="shape=image;verticalLabelPosition=bottom;labelBackgroundColor=default;verticalAlign=top;aspect=fixed;imageAspect=0;image=data:image/svg+xml,PHN2ZyB4bWxuczp4bGluaz0iaHR0cDovL3d3dy53My5vcmcvMTk5OS94bGluayIgeG1sbnM9Imh0dHA6Ly93d3cudzMub3JnLzIwMDAvc3ZnIiB2aWV3Qm94PSIwIDAgMjE2IDIxNiIgdmVyc2lvbj0iMS4xIj4mI3hhOyAgPGRlZnM+JiN4YTsgICAgPHN0eWxlPiYjeGE7ICAgICAgLmNscy0xIHsmI3hhOyAgICAgICAgZmlsbDogbm9uZTsmI3hhOyAgICAgIH0mI3hhOyYjeGE7ICAgICAgLmNscy0yIHsmI3hhOyAgICAgICAgZmlsbDogI2MwY2EzMzsmI3hhOyAgICAgIH0mI3hhOyYjeGE7ICAgICAgLmNscy0zIHsmI3hhOyAgICAgICAgY2xpcC1wYXRoOiB1cmwoI2NsaXBwYXRoLTEpOyYjeGE7ICAgICAgfSYjeGE7JiN4YTsgICAgICAuY2xzLTQgeyYjeGE7ICAgICAgICBmaWxsOiAjNWQ0MDM3OyYjeGE7ICAgICAgfSYjeGE7JiN4YTsgICAgICAuY2xzLTUgeyYjeGE7ICAgICAgICBmaWxsOiAjZmZlMDgyOyYjeGE7ICAgICAgfSYjeGE7JiN4YTsgICAgICAuY2xzLTYgeyYjeGE7ICAgICAgICBmaWxsOiAjODI3NzE3OyYjeGE7ICAgICAgfSYjeGE7JiN4YTsgICAgICAuY2xzLTcgeyYjeGE7ICAgICAgICBmaWxsOiAjZmZjYTI4OyYjeGE7ICAgICAgfSYjeGE7JiN4YTsgICAgICAuY2xzLTggeyYjeGE7ICAgICAgICBjbGlwLXBhdGg6IHVybCgjY2xpcHBhdGgpOyYjeGE7ICAgICAgfSYjeGE7ICAgIDwvc3R5bGU+JiN4YTsgICAgPGNsaXBQYXRoIGlkPSJjbGlwcGF0aCI+JiN4YTsgICAgICA8cmVjdCBoZWlnaHQ9IjE3My4wNyIgd2lkdGg9IjE1NS43NiIgeT0iMjQiIHg9IjI4LjA4IiBjbGFzcz0iY2xzLTEiLz4mI3hhOyAgICA8L2NsaXBQYXRoPiYjeGE7ICAgIDxjbGlwUGF0aCBpZD0iY2xpcHBhdGgtMSI+JiN4YTsgICAgICA8cmVjdCBoZWlnaHQ9IjE3My4wNyIgd2lkdGg9IjE1NS43NiIgeT0iMjQiIHg9IjI4LjA4IiBjbGFzcz0iY2xzLTEiLz4mI3hhOyAgICA8L2NsaXBQYXRoPiYjeGE7ICA8L2RlZnM+JiN4YTsgICYjeGE7ICA8Zz4mI3hhOyAgICA8ZyBpZD0iTGF5ZXJfMSI+JiN4YTsgICAgICA8Zz4mI3hhOyAgICAgICAgPHBhdGggZD0iTTE1My41NSw1NC4yOGM0LjMzLDAsMzAuMjktNC4zMywzMC4yOSwzNC42MXMtNTYuMjUsMTA4LjE3LTEzNC4xMywxMDguMTdjLTguNjUsMC0xNy4zMS00LjMzLTE3LjMxLTQuMzNsLTQuMzMtMTIuOThzNC4zMy0xNy4zMSwzMC4yOS0zMC4yOWMyNS45Ni0xMi45OCw0NC40LTIzLjg3LDU1LjQzLTM0Ljg4LDguNjUtOC42NSwyMi40NS0yNS42OSwyMi40NS0zOC42NywwLTguNDcsOC42NS0xNy4zMSw4LjY1LTE3LjMxIiBjbGFzcz0iY2xzLTUiLz4mI3hhOyAgICAgICAgPGcgY2xhc3M9ImNscy04Ij4mI3hhOyAgICAgICAgICA8cGF0aCBkPSJNMzYuNzMsMTg0LjA4czMwLjI5LTguNjUsNTYuMjUtMjEuNjNjMjUuOTYtMTIuOTgsODIuMjEtNTEuOTIsNjQuOS0xMDguMTcsMCwwLDI1Ljk2LTQuMzMsMjUuOTYsMzQuNjFzLTU2LjI1LDEwOC4xNy0xMzQuMTMsMTA4LjE3Yy04LjY1LDAtMTcuMzEtNC4zMy0xNy4zMS00LjMzbDQuMzMtOC42NVpNMzYuNzMsMTg0LjA4IiBjbGFzcz0iY2xzLTciLz4mI3hhOyAgICAgICAgICA8cGF0aCBkPSJNMTc5Ljc4LDY2Ljk5Yy04LjExLTE3LjM5LTI2LjIzLTguMzgtMjYuMjMtNDMtMTIuOTgsMC0yMS42Myw4LjY1LTIxLjYzLDguNjUsMCwwLDEyLjk4LDEyLjk4LDEyLjk4LDI1Ljk2LDguNjUsMCwxNS42My0uNjcsMTYuMzksMjAuNTUsNS44Ny0yNC43OSwxOC40OS0xMi4xNywxOC40OS0xMi4xN2gwWk0xNzkuNzgsNjYuOTkiIGNsYXNzPSJjbHMtMiIvPiYjeGE7ICAgICAgICA8L2c+JiN4YTsgICAgICAgIDxwYXRoIGQ9Ik0xMzYuMjQsNzUuOTFzLS4yNy03Ljg0LDguNjUtMTcuMzFjOC45Mi05LjQ3LDE3LjQ0LTEuNzYsMTcuNDQtMS43NmwtMS4wNSwyMi4zMXMtMy43OS0xNC4wNi05LjczLTE0LjQyYy0xMi41NC0uNzYtMTUuMzEsMTEuMTctMTUuMzEsMTEuMTdoMFpNMTM2LjI0LDc1LjkxIiBjbGFzcz0iY2xzLTIiLz4mI3hhOyAgICAgICAgPGcgY2xhc3M9ImNscy0zIj4mI3hhOyAgICAgICAgICA8cGF0aCBkPSJNMjguMDgsMTg0LjA4bDQuMzMsOC42NWg0LjMzdi04LjY1bC04LjY1LTQuMzN2NC4zM1pNMjguMDgsMTg0LjA4IiBjbGFzcz0iY2xzLTQiLz4mI3hhOyAgICAgICAgICA8cGF0aCBkPSJNMTUzLjU1LDI0Yy0xMi45OCwwLTIxLjYzLDguNjUtMjEuNjMsOC42NWgxMi45OGw4LjY1LTguNjVaTTE1My41NSwyNCIgY2xhc3M9ImNscy02Ii8+JiN4YTsgICAgICAgIDwvZz4mI3hhOyAgICAgIDwvZz4mI3hhOyAgICA8L2c+JiN4YTsgIDwvZz4mI3hhOzwvc3ZnPg==;" vertex="1" parent="1">
          <mxGeometry x="997.2" y="493" width="36" height="36" as="geometry" />
        </mxCell>
        <mxCell id="N68k7SORgZGEfMQqbvbX-3" value="" style="shape=image;verticalLabelPosition=bottom;labelBackgroundColor=default;verticalAlign=top;aspect=fixed;imageAspect=0;image=data:image/svg+xml,PHN2ZyB4bWxuczp4bGluaz0iaHR0cDovL3d3dy53My5vcmcvMTk5OS94bGluayIgeG1sbnM9Imh0dHA6Ly93d3cudzMub3JnLzIwMDAvc3ZnIiB2aWV3Qm94PSIwIDAgMjE2IDIxNiIgdmVyc2lvbj0iMS4xIj4mI3hhOyAgPGRlZnM+JiN4YTsgICAgPHN0eWxlPiYjeGE7ICAgICAgLmNscy0xIHsmI3hhOyAgICAgICAgZmlsbDogbm9uZTsmI3hhOyAgICAgIH0mI3hhOyYjeGE7ICAgICAgLmNscy0yIHsmI3hhOyAgICAgICAgY2xpcC1wYXRoOiB1cmwoI2NsaXBwYXRoLTEpOyYjeGE7ICAgICAgfSYjeGE7JiN4YTsgICAgICAuY2xzLTMgeyYjeGE7ICAgICAgICBmaWxsOiAjMWI4MjE3OyYjeGE7ICAgICAgfSYjeGE7JiN4YTsgICAgICAuY2xzLTQgeyYjeGE7ICAgICAgICBmaWxsOiAjMjRjYTYwOyYjeGE7ICAgICAgfSYjeGE7JiN4YTsgICAgICAuY2xzLTUgeyYjeGE7ICAgICAgICBmaWxsOiAjOGNmZjI4OyYjeGE7ICAgICAgfSYjeGE7JiN4YTsgICAgICAuY2xzLTYgeyYjeGE7ICAgICAgICBmaWxsOiAjNWQ1NDM3OyYjeGE7ICAgICAgfSYjeGE7JiN4YTsgICAgICAuY2xzLTcgeyYjeGE7ICAgICAgICBmaWxsOiAjYmRmZjgyOyYjeGE7ICAgICAgfSYjeGE7JiN4YTsgICAgICAuY2xzLTggeyYjeGE7ICAgICAgICBjbGlwLXBhdGg6IHVybCgjY2xpcHBhdGgpOyYjeGE7ICAgICAgfSYjeGE7ICAgIDwvc3R5bGU+JiN4YTsgICAgPGNsaXBQYXRoIGlkPSJjbGlwcGF0aCI+JiN4YTsgICAgICA8cmVjdCBoZWlnaHQ9IjE3My4wNyIgd2lkdGg9IjE1NS43NiIgeT0iMjQiIHg9IjI4LjA4IiBjbGFzcz0iY2xzLTEiLz4mI3hhOyAgICA8L2NsaXBQYXRoPiYjeGE7ICAgIDxjbGlwUGF0aCBpZD0iY2xpcHBhdGgtMSI+JiN4YTsgICAgICA8cmVjdCBoZWlnaHQ9IjE3My4wNyIgd2lkdGg9IjE1NS43NiIgeT0iMjQiIHg9IjI4LjA4IiBjbGFzcz0iY2xzLTEiLz4mI3hhOyAgICA8L2NsaXBQYXRoPiYjeGE7ICA8L2RlZnM+JiN4YTsgICYjeGE7ICA8Zz4mI3hhOyAgICA8ZyBpZD0iTGF5ZXJfMSI+JiN4YTsgICAgICA8Zz4mI3hhOyAgICAgICAgPHBhdGggZD0iTTE1My41NSw1NC4yOGM0LjMzLDAsMzAuMjktNC4zMywzMC4yOSwzNC42MXMtNTYuMjUsMTA4LjE3LTEzNC4xMywxMDguMTdjLTguNjUsMC0xNy4zMS00LjMzLTE3LjMxLTQuMzNsLTQuMzMtMTIuOThzNC4zMy0xNy4zMSwzMC4yOS0zMC4yOWMyNS45Ni0xMi45OCw0NC40LTIzLjg3LDU1LjQzLTM0Ljg4LDguNjUtOC42NSwyMi40NS0yNS42OSwyMi40NS0zOC42NywwLTguNDcsOC42NS0xNy4zMSw4LjY1LTE3LjMxIiBjbGFzcz0iY2xzLTciLz4mI3hhOyAgICAgICAgPGcgY2xhc3M9ImNscy04Ij4mI3hhOyAgICAgICAgICA8cGF0aCBkPSJNMzYuNzMsMTg0LjA4czMwLjI5LTguNjUsNTYuMjUtMjEuNjNjMjUuOTYtMTIuOTgsODIuMjEtNTEuOTIsNjQuOS0xMDguMTcsMCwwLDI1Ljk2LTQuMzMsMjUuOTYsMzQuNjFzLTU2LjI1LDEwOC4xNy0xMzQuMTMsMTA4LjE3Yy04LjY1LDAtMTcuMzEtNC4zMy0xNy4zMS00LjMzbDQuMzMtOC42NVpNMzYuNzMsMTg0LjA4IiBjbGFzcz0iY2xzLTUiLz4mI3hhOyAgICAgICAgICA8cGF0aCBkPSJNMTc5Ljc4LDY2Ljk5Yy04LjExLTE3LjM5LTI2LjIzLTguMzgtMjYuMjMtNDMtMTIuOTgsMC0yMS42Myw4LjY1LTIxLjYzLDguNjUsMCwwLDEyLjk4LDEyLjk4LDEyLjk4LDI1Ljk2LDguNjUsMCwxNS42My0uNjcsMTYuMzksMjAuNTUsNS44Ny0yNC43OSwxOC40OS0xMi4xNywxOC40OS0xMi4xN2gwWk0xNzkuNzgsNjYuOTkiIGNsYXNzPSJjbHMtNCIvPiYjeGE7ICAgICAgICA8L2c+JiN4YTsgICAgICAgIDxwYXRoIGQ9Ik0xMzYuMjQsNzUuOTFzLS4yNy03Ljg0LDguNjUtMTcuMzFjOC45Mi05LjQ3LDE3LjQ0LTEuNzYsMTcuNDQtMS43NmwtMS4wNSwyMi4zMXMtMy43OS0xNC4wNi05LjczLTE0LjQyYy0xMi41NC0uNzYtMTUuMzEsMTEuMTctMTUuMzEsMTEuMTdoMFpNMTM2LjI0LDc1LjkxIiBjbGFzcz0iY2xzLTQiLz4mI3hhOyAgICAgICAgPGcgY2xhc3M9ImNscy0yIj4mI3hhOyAgICAgICAgICA8cGF0aCBkPSJNMjguMDgsMTg0LjA4bDQuMzMsOC42NWg0LjMzdi04LjY1bC04LjY1LTQuMzN2NC4zM1pNMjguMDgsMTg0LjA4IiBjbGFzcz0iY2xzLTYiLz4mI3hhOyAgICAgICAgICA8cGF0aCBkPSJNMTUzLjU1LDI0Yy0xMi45OCwwLTIxLjYzLDguNjUtMjEuNjMsOC42NWgxMi45OGw4LjY1LTguNjVaTTE1My41NSwyNCIgY2xhc3M9ImNscy0zIi8+JiN4YTsgICAgICAgIDwvZz4mI3hhOyAgICAgIDwvZz4mI3hhOyAgICA8L2c+JiN4YTsgIDwvZz4mI3hhOzwvc3ZnPg==;" vertex="1" parent="1">
          <mxGeometry x="260" y="500" width="36" height="36" as="geometry" />
        </mxCell>
        <mxCell id="N68k7SORgZGEfMQqbvbX-4" value="" style="shape=image;verticalLabelPosition=bottom;labelBackgroundColor=default;verticalAlign=top;aspect=fixed;imageAspect=0;image=data:image/svg+xml,PHN2ZyB4bWxuczp4bGluaz0iaHR0cDovL3d3dy53My5vcmcvMTk5OS94bGluayIgeG1sbnM9Imh0dHA6Ly93d3cudzMub3JnLzIwMDAvc3ZnIiB2aWV3Qm94PSIwIDAgMjE2IDIxNiIgdmVyc2lvbj0iMS4xIj4mI3hhOyAgPGRlZnM+JiN4YTsgICAgPHN0eWxlPiYjeGE7ICAgICAgLmNscy0xIHsmI3hhOyAgICAgICAgZmlsbDogbm9uZTsmI3hhOyAgICAgIH0mI3hhOyYjeGE7ICAgICAgLmNscy0yIHsmI3hhOyAgICAgICAgY2xpcC1wYXRoOiB1cmwoI2NsaXBwYXRoLTEpOyYjeGE7ICAgICAgfSYjeGE7JiN4YTsgICAgICAuY2xzLTMgeyYjeGE7ICAgICAgICBmaWxsOiAjMWI4MjE3OyYjeGE7ICAgICAgfSYjeGE7JiN4YTsgICAgICAuY2xzLTQgeyYjeGE7ICAgICAgICBmaWxsOiAjMjRjYTYwOyYjeGE7ICAgICAgfSYjeGE7JiN4YTsgICAgICAuY2xzLTUgeyYjeGE7ICAgICAgICBmaWxsOiAjOGNmZjI4OyYjeGE7ICAgICAgfSYjeGE7JiN4YTsgICAgICAuY2xzLTYgeyYjeGE7ICAgICAgICBmaWxsOiAjNWQ1NDM3OyYjeGE7ICAgICAgfSYjeGE7JiN4YTsgICAgICAuY2xzLTcgeyYjeGE7ICAgICAgICBmaWxsOiAjYmRmZjgyOyYjeGE7ICAgICAgfSYjeGE7JiN4YTsgICAgICAuY2xzLTggeyYjeGE7ICAgICAgICBjbGlwLXBhdGg6IHVybCgjY2xpcHBhdGgpOyYjeGE7ICAgICAgfSYjeGE7ICAgIDwvc3R5bGU+JiN4YTsgICAgPGNsaXBQYXRoIGlkPSJjbGlwcGF0aCI+JiN4YTsgICAgICA8cmVjdCBoZWlnaHQ9IjE3My4wNyIgd2lkdGg9IjE1NS43NiIgeT0iMjQiIHg9IjI4LjA4IiBjbGFzcz0iY2xzLTEiLz4mI3hhOyAgICA8L2NsaXBQYXRoPiYjeGE7ICAgIDxjbGlwUGF0aCBpZD0iY2xpcHBhdGgtMSI+JiN4YTsgICAgICA8cmVjdCBoZWlnaHQ9IjE3My4wNyIgd2lkdGg9IjE1NS43NiIgeT0iMjQiIHg9IjI4LjA4IiBjbGFzcz0iY2xzLTEiLz4mI3hhOyAgICA8L2NsaXBQYXRoPiYjeGE7ICA8L2RlZnM+JiN4YTsgICYjeGE7ICA8Zz4mI3hhOyAgICA8ZyBpZD0iTGF5ZXJfMSI+JiN4YTsgICAgICA8Zz4mI3hhOyAgICAgICAgPHBhdGggZD0iTTE1My41NSw1NC4yOGM0LjMzLDAsMzAuMjktNC4zMywzMC4yOSwzNC42MXMtNTYuMjUsMTA4LjE3LTEzNC4xMywxMDguMTdjLTguNjUsMC0xNy4zMS00LjMzLTE3LjMxLTQuMzNsLTQuMzMtMTIuOThzNC4zMy0xNy4zMSwzMC4yOS0zMC4yOWMyNS45Ni0xMi45OCw0NC40LTIzLjg3LDU1LjQzLTM0Ljg4LDguNjUtOC42NSwyMi40NS0yNS42OSwyMi40NS0zOC42NywwLTguNDcsOC42NS0xNy4zMSw4LjY1LTE3LjMxIiBjbGFzcz0iY2xzLTciLz4mI3hhOyAgICAgICAgPGcgY2xhc3M9ImNscy04Ij4mI3hhOyAgICAgICAgICA8cGF0aCBkPSJNMzYuNzMsMTg0LjA4czMwLjI5LTguNjUsNTYuMjUtMjEuNjNjMjUuOTYtMTIuOTgsODIuMjEtNTEuOTIsNjQuOS0xMDguMTcsMCwwLDI1Ljk2LTQuMzMsMjUuOTYsMzQuNjFzLTU2LjI1LDEwOC4xNy0xMzQuMTMsMTA4LjE3Yy04LjY1LDAtMTcuMzEtNC4zMy0xNy4zMS00LjMzbDQuMzMtOC42NVpNMzYuNzMsMTg0LjA4IiBjbGFzcz0iY2xzLTUiLz4mI3hhOyAgICAgICAgICA8cGF0aCBkPSJNMTc5Ljc4LDY2Ljk5Yy04LjExLTE3LjM5LTI2LjIzLTguMzgtMjYuMjMtNDMtMTIuOTgsMC0yMS42Myw4LjY1LTIxLjYzLDguNjUsMCwwLDEyLjk4LDEyLjk4LDEyLjk4LDI1Ljk2LDguNjUsMCwxNS42My0uNjcsMTYuMzksMjAuNTUsNS44Ny0yNC43OSwxOC40OS0xMi4xNywxOC40OS0xMi4xN2gwWk0xNzkuNzgsNjYuOTkiIGNsYXNzPSJjbHMtNCIvPiYjeGE7ICAgICAgICA8L2c+JiN4YTsgICAgICAgIDxwYXRoIGQ9Ik0xMzYuMjQsNzUuOTFzLS4yNy03Ljg0LDguNjUtMTcuMzFjOC45Mi05LjQ3LDE3LjQ0LTEuNzYsMTcuNDQtMS43NmwtMS4wNSwyMi4zMXMtMy43OS0xNC4wNi05LjczLTE0LjQyYy0xMi41NC0uNzYtMTUuMzEsMTEuMTctMTUuMzEsMTEuMTdoMFpNMTM2LjI0LDc1LjkxIiBjbGFzcz0iY2xzLTQiLz4mI3hhOyAgICAgICAgPGcgY2xhc3M9ImNscy0yIj4mI3hhOyAgICAgICAgICA8cGF0aCBkPSJNMjguMDgsMTg0LjA4bDQuMzMsOC42NWg0LjMzdi04LjY1bC04LjY1LTQuMzN2NC4zM1pNMjguMDgsMTg0LjA4IiBjbGFzcz0iY2xzLTYiLz4mI3hhOyAgICAgICAgICA8cGF0aCBkPSJNMTUzLjU1LDI0Yy0xMi45OCwwLTIxLjYzLDguNjUtMjEuNjMsOC42NWgxMi45OGw4LjY1LTguNjVaTTE1My41NSwyNCIgY2xhc3M9ImNscy0zIi8+JiN4YTsgICAgICAgIDwvZz4mI3hhOyAgICAgIDwvZz4mI3hhOyAgICA8L2c+JiN4YTsgIDwvZz4mI3hhOzwvc3ZnPg==;" vertex="1" parent="1">
          <mxGeometry x="630" y="300" width="36" height="36" as="geometry" />
        </mxCell>
      </root>
    </mxGraphModel>
  </diagram>
</mxfile>
